<svg aria-hidden="true" style="position: absolute; width: 0; height: 0; overflow: hidden;" version="1.1" xmlns="http://www.w3.org/2000/svg" xmlns:xlink="http://www.w3.org/1999/xlink">
<defs>
<symbol id="icon-cultura" viewBox="0 0 16 16">
<title>cultura</title>
<path d="M8 16c-4.418 0-8-3.582-8-8s3.582-8 8-8 8 3.582 8 8-3.582 8-8 8zM8 2c-3.313 0-6 2.687-6 6s2.687 6 6 6 6-2.687 6-6-2.687-6-6-6zM10.94 11.606l-0.176 0.103-0.508 0.31-0.3 0.218c-0.223 0.106-0.455 0.19-0.695 0.262v-0.295l-0.085-0.679c0 0-0.042-0.392-0.105-0.494s-0.212-0.248-0.36-0.31-0.254-0.062-0.339-0.164c-0.085-0.104-0.148-0.289-0.254-0.453s-0.233-0.33-0.233-0.412 0-0.927 0-0.927l0.106-0.782 0.232-0.165 0.275-0.309 0.19-0.062 0.656 0.123h0.466l0.191 0.392 0.444 0.35 0.275 0.433 0.359 0.123h0.402l0.275 0.33 0.17 0.35 0.063 0.247v0.412l-0.044 0.243c-0.269 0.44-0.609 0.828-1.009 1.157zM9.304 4.502l-0.466 0.247-0.169 0.474-0.275 0.247h-0.911l-0.423 0.165-0.021 0.329-0.169 0.268-0.043 0.289 0.085 0.247 0.105 0.247c0 0 0.255 0.288 0 0.494 0 0-0.317 0-0.381-0.104s-0.529-0.391-0.614-0.474c-0.084-0.082-0.359-0.164-0.359-0.164l-0.339-0.124-0.317-0.021 0.021-0.433-0.021-0.37-0.128-0.268-0.359-0.269-0.021-0.288 0.044-0.16c0.857-0.829 2.039-1.343 3.344-1.343 0.736 0 1.425 0.177 2.047 0.468l-0.014 0.108-0.614 0.433z"></path>
</symbol>
<symbol id="icon-histria" viewBox="0 0 17 16">
<title>histria</title>
<path d="M16 15v-1h-1v-6h1v-1h-3v1h1v6h-3v-6h1v-1h-3v1h1v6h-3v-6h1v-1h-3v1h1v6h-3v-6h1v-1h-3v1h1v6h-1v1h-1v1h17v-1h-1z"></path>
<path d="M8 0h1l8 5v1h-17v-1l8-5z"></path>
</symbol>
<symbol id="icon-mask" viewBox="0 0 20 20">
<title>mask</title>
<path d="M19.581 5.84c-0.043-0.469-0.462-0.803-0.92-0.73-1.742 0.278-5.826 1.89-8.661 1.89s-6.919-1.612-8.661-1.89c-0.458-0.073-0.876 0.26-0.92 0.729-0.142 1.532-0.419 5.611-0.419 6.229 0 0.83 3.472 2.732 6 2.732 2.452 0 2.95-2.732 4-2.732s1.548 2.732 4 2.732c2.528 0 6-1.902 6-2.732 0-0.618-0.277-4.697-0.419-6.228zM7.66 10.72c-0.353 0.318-1.335 1.070-2.531 0.835s-1.919-1.323-2.166-1.758c-0.060-0.106-0.041-0.24 0.044-0.317 0.353-0.318 1.335-1.070 2.532-0.835s1.919 1.323 2.166 1.758c0.059 0.106 0.040 0.24-0.045 0.317zM17.037 9.797c-0.246 0.436-0.969 1.523-2.166 1.758s-2.179-0.517-2.531-0.835c-0.086-0.077-0.104-0.211-0.045-0.317 0.246-0.436 0.969-1.523 2.166-1.758s2.179 0.517 2.531 0.835c0.086 0.077 0.105 0.211 0.045 0.317z"></path>
</symbol>
<symbol id="icon-futbol-o" viewBox="0 0 28 28">
<title>futbol-o</title>
<path d="M9.516 12.75l4.484-3.25 4.484 3.25-1.703 5.25h-5.547zM14 0c7.734 0 14 6.266 14 14s-6.266 14-14 14-14-6.266-14-14 6.266-14 14-14zM23.672 21.094c1.469-2 2.328-4.438 2.328-7.094v-0.047l-1.594 1.391-3.75-3.5 0.984-5.047 2.094 0.187c-1.484-2.047-3.609-3.625-6.078-4.406l0.828 1.937-4.484 2.484-4.484-2.484 0.828-1.937c-2.469 0.781-4.594 2.359-6.078 4.406l2.109-0.187 0.969 5.047-3.75 3.5-1.594-1.391v0.047c0 2.656 0.859 5.094 2.328 7.094l0.469-2.063 5.094 0.625 2.172 4.656-1.813 1.078c1.172 0.391 2.438 0.609 3.75 0.609s2.578-0.219 3.75-0.609l-1.813-1.078 2.172-4.656 5.094-0.625z"></path>
</symbol>
</defs>
</svg>
